<svg width="18" height="18" viewBox="0 0 18 18" fill="none" xmlns="http://www.w3.org/2000/svg">
<path d="M0.75 7.50003C0.551088 7.50003 0.360322 7.42101 0.21967 7.28036C0.0790178 7.1397 0 6.94894 0 6.75003V0.751526C0 0.552613 0.0790178 0.361848 0.21967 0.221196C0.360322 0.0805437 0.551088 0.00152588 0.75 0.00152588H6.75C6.94891 0.00152588 7.13968 0.0805437 7.28033 0.221196C7.42098 0.361848 7.5 0.552613 7.5 0.751526V6.75003C7.5 6.94894 7.42098 7.1397 7.28033 7.28036C7.13968 7.42101 6.94891 7.50003 6.75 7.50003H0.75ZM11.25 7.50003C11.0511 7.50003 10.8603 7.42101 10.7197 7.28036C10.579 7.1397 10.5 6.94894 10.5 6.75003V0.751526C10.5 0.552613 10.579 0.361848 10.7197 0.221196C10.8603 0.0805437 11.0511 0.00152588 11.25 0.00152588H17.2485C17.4474 0.00152588 17.6382 0.0805437 17.7788 0.221196C17.9195 0.361848 17.9985 0.552613 17.9985 0.751526V6.75003C17.9985 6.94894 17.9195 7.1397 17.7788 7.28036C17.6382 7.42101 17.4474 7.50003 17.2485 7.50003H11.25ZM0.75 18C0.551088 18 0.360322 17.921 0.21967 17.7804C0.0790178 17.6397 0 17.4489 0 17.25V11.25C0 11.0511 0.0790178 10.8603 0.21967 10.7197C0.360322 10.579 0.551088 10.5 0.75 10.5H6.75C6.94891 10.5 7.13968 10.579 7.28033 10.7197C7.42098 10.8603 7.5 11.0511 7.5 11.25V17.25C7.5 17.4489 7.42098 17.6397 7.28033 17.7804C7.13968 17.921 6.94891 18 6.75 18H0.75ZM11.25 18C11.0511 18 10.8603 17.921 10.7197 17.7804C10.579 17.6397 10.5 17.4489 10.5 17.25V11.25C10.5 11.0511 10.579 10.8603 10.7197 10.7197C10.8603 10.579 11.0511 10.5 11.25 10.5H17.2485C17.4474 10.5 17.6382 10.579 17.7788 10.7197C17.9195 10.8603 17.9985 11.0511 17.9985 11.25V17.25C17.9985 17.4489 17.9195 17.6397 17.7788 17.7804C17.6382 17.921 17.4474 18 17.2485 18H11.25Z" fill="black"/>
</svg>
