<svg width="16" height="8" viewBox="0 0 16 8" fill="none" xmlns="http://www.w3.org/2000/svg">
<path fill-rule="evenodd" clip-rule="evenodd" d="M14 1.99997C14.5304 1.99997 15.0391 2.21068 15.4142 2.58576C15.7893 2.96083 16 3.46954 16 3.99997C16 4.5304 15.7893 5.03911 15.4142 5.41418C15.0391 5.78926 14.5304 5.99997 14 5.99997C13.4696 5.99997 12.9609 5.78926 12.5858 5.41418C12.2107 5.03911 12 4.5304 12 3.99997C12 3.46954 12.2107 2.96083 12.5858 2.58576C12.9609 2.21068 13.4696 1.99997 14 1.99997ZM5.159 0.219971C5.01855 0.360596 4.93966 0.55122 4.93966 0.74997C4.93966 0.948721 5.01855 1.13934 5.159 1.27997L7.129 3.24997H0.75C0.551088 3.24997 0.360322 3.32899 0.21967 3.46964C0.0790176 3.61029 0 3.80106 0 3.99997C0 4.19888 0.0790176 4.38965 0.21967 4.5303C0.360322 4.67095 0.551088 4.74997 0.75 4.74997H7.129L5.159 6.71997C5.02652 6.86215 4.9544 7.05019 4.95783 7.24449C4.96125 7.43879 5.03997 7.62418 5.17738 7.76159C5.31479 7.89901 5.50018 7.97772 5.69448 7.98115C5.88878 7.98457 6.07683 7.91245 6.219 7.77997L9.469 4.52997L10 3.99997L9.47 3.46997L6.22 0.219971C6.15035 0.150276 6.06765 0.0949883 5.97662 0.0572672C5.8856 0.019546 5.78803 0.000130653 5.6895 0.000130653C5.59097 0.000130653 5.4934 0.019546 5.40238 0.0572672C5.31135 0.0949883 5.22865 0.150276 5.159 0.219971Z" fill="black"/>
</svg>
