<svg width="25" height="27" viewBox="0 0 25 27" fill="none" xmlns="http://www.w3.org/2000/svg">
<path d="M10.9897 11.1771L9.298 9.45521L11.5032 7.25H7.45529C7.27404 7.77361 6.99209 8.22674 6.60946 8.60938C6.22682 8.99201 5.77369 9.27396 5.25008 9.45521V19.5448C5.95494 19.8066 6.53414 20.2444 6.98766 20.8582C7.44039 21.4729 7.66675 22.1729 7.66675 22.9583C7.66675 23.9653 7.31432 24.8212 6.60946 25.526C5.90459 26.2309 5.04869 26.5833 4.04175 26.5833C3.0348 26.5833 2.1789 26.2309 1.47404 25.526C0.769179 24.8212 0.416748 23.9653 0.416748 22.9583C0.416748 22.1729 0.643109 21.4729 1.09583 20.8582C1.54936 20.2444 2.12855 19.8066 2.83341 19.5448V9.45521C2.12855 9.1934 1.54936 8.75518 1.09583 8.14054C0.643109 7.52671 0.416748 6.82708 0.416748 6.04167C0.416748 5.03472 0.769179 4.17882 1.47404 3.47396C2.1789 2.7691 3.0348 2.41667 4.04175 2.41667C4.82716 2.41667 5.52719 2.64303 6.14183 3.09575C6.75566 3.54928 7.19348 4.12847 7.45529 4.83333H11.5032L9.298 2.62812L10.9897 0.90625L16.1251 6.04167L10.9897 11.1771ZM20.9584 2.41667C21.9654 2.41667 22.8213 2.7691 23.5261 3.47396C24.231 4.17882 24.5834 5.03472 24.5834 6.04167C24.5834 7.04861 24.231 7.90451 23.5261 8.60938C22.8213 9.31424 21.9654 9.66667 20.9584 9.66667C19.9515 9.66667 19.0956 9.31424 18.3907 8.60938C17.6858 7.90451 17.3334 7.04861 17.3334 6.04167C17.3334 5.03472 17.6858 4.17882 18.3907 3.47396C19.0956 2.7691 19.9515 2.41667 20.9584 2.41667ZM16.6084 14.9833L21.7136 20.0885L15.2188 26.5833H10.0834V21.4479L16.6084 14.9833ZM23.0126 18.8198L17.847 13.6542L18.7532 12.7781C19.2365 12.2948 19.8157 12.0531 20.4908 12.0531C21.165 12.0531 21.7338 12.2948 22.197 12.7781L23.8886 14.5C24.3518 14.9632 24.5834 15.5271 24.5834 16.1917C24.5834 16.8562 24.3518 17.4201 23.8886 17.8833L23.0126 18.8198Z" fill="black"/>
</svg>
