<svg width="38" height="35" viewBox="0 0 38 35" fill="none" xmlns="http://www.w3.org/2000/svg">
<path d="M12.7267 5.59166C11.5344 7.09394 10.8822 8.95369 10.875 10.8716C10.875 11.2224 10.7357 11.5588 10.4876 11.8069C10.2396 12.0549 9.90318 12.1943 9.55239 12.1943C4.75916 12.1943 2.93922 15.5379 2.93922 17.4848C2.93922 18.6143 3.2249 19.9132 4.10049 20.9131C4.94433 21.8759 6.52091 22.7753 9.55239 22.7753H10.875C10.875 23.6774 10.957 24.5635 11.1131 25.4206H9.55239C5.9707 25.4206 3.57937 24.336 2.1086 22.6537C0.669574 21.0083 0.293945 19.0005 0.293945 17.4848C0.293945 14.3687 2.84663 10.1706 8.30382 9.61247C8.54197 7.52783 9.36555 5.55323 10.6793 3.91721C12.4172 1.79041 15.1075 0.290541 18.8108 0.290541C21.0593 0.290541 23.6808 1.03122 25.7679 2.74006C27.4556 4.12089 28.7518 6.10749 29.2094 8.72366C28.287 8.47608 27.3425 8.32014 26.3895 8.25809C25.994 6.893 25.1911 5.68123 24.0882 4.78485C22.5862 3.59403 20.7275 2.94278 18.8108 2.93581C15.901 2.93581 13.9621 4.08121 12.7267 5.59166ZM37.3277 22.7753C37.3277 24.3386 37.0198 25.8865 36.4216 27.3307C35.8234 28.7749 34.9466 30.0872 33.8412 31.1925C32.7358 32.2979 31.4236 33.1747 29.9794 33.7729C28.5351 34.3712 26.9872 34.6791 25.424 34.6791C23.8608 34.6791 22.3129 34.3712 20.8687 33.7729C19.4244 33.1747 18.1122 32.2979 17.0068 31.1925C15.9015 30.0872 15.0246 28.7749 14.4264 27.3307C13.8282 25.8865 13.5203 24.3386 13.5203 22.7753C13.5203 19.6183 14.7744 16.5905 17.0068 14.3581C19.2392 12.1258 22.267 10.8716 25.424 10.8716C28.5811 10.8716 31.6088 12.1258 33.8412 14.3581C36.0736 16.5905 37.3277 19.6183 37.3277 22.7753ZM31.651 17.871C31.5281 17.7478 31.3822 17.6501 31.2215 17.5834C31.0608 17.5168 30.8885 17.4824 30.7146 17.4824C30.5406 17.4824 30.3683 17.5168 30.2076 17.5834C30.0469 17.6501 29.901 17.7478 29.7781 17.871L22.7787 24.873L21.0699 23.1615C20.9469 23.0386 20.8009 22.941 20.6403 22.8745C20.4796 22.8079 20.3074 22.7737 20.1335 22.7737C19.9596 22.7737 19.7874 22.8079 19.6267 22.8745C19.466 22.941 19.32 23.0386 19.197 23.1615C19.0741 23.2845 18.9765 23.4305 18.91 23.5912C18.8434 23.7519 18.8092 23.9241 18.8092 24.098C18.8092 24.2719 18.8434 24.4441 18.91 24.6048C18.9765 24.7654 19.0741 24.9114 19.197 25.0344L21.8423 27.6797C21.9652 27.8028 22.1111 27.9006 22.2718 27.9672C22.4325 28.0339 22.6048 28.0682 22.7787 28.0682C22.9527 28.0682 23.125 28.0339 23.2857 27.9672C23.4464 27.9006 23.5923 27.8028 23.7152 27.6797L31.651 19.7439C31.7741 19.621 31.8719 19.475 31.9386 19.3144C32.0052 19.1537 32.0396 18.9814 32.0396 18.8074C32.0396 18.6335 32.0052 18.4612 31.9386 18.3005C31.8719 18.1398 31.7741 17.9939 31.651 17.871Z" fill="black"/>
</svg>
