<svg width="17" height="17" viewBox="0 0 17 17" fill="none" xmlns="http://www.w3.org/2000/svg">
<path d="M0.741046 14.2236C0.236058 14.7286 0.236058 15.5473 0.741046 16.0523C1.24603 16.5573 2.06478 16.5573 2.56977 16.0523L8.55196 10.0701L14.5342 16.0523C15.0391 16.5573 15.8579 16.5573 16.3629 16.0523C16.8679 15.5473 16.8679 14.7286 16.3629 14.2236L10.3807 8.24142L16.3629 2.25922C16.8679 1.75424 16.8679 0.935488 16.3629 0.430499C15.8579 -0.0744894 15.0391 -0.0744893 14.5342 0.430499L8.55196 6.41269L2.56977 0.430501C2.06478 -0.0744872 1.24603 -0.0744872 0.741046 0.430501C0.236058 0.935489 0.236058 1.75424 0.741046 2.25923L6.72324 8.24142L0.741046 14.2236Z" fill="white"/>
</svg>
