<svg width="30" height="23" viewBox="0 0 30 23" fill="none" xmlns="http://www.w3.org/2000/svg">
<path d="M13.2293 16.2473C12.3845 15.6198 0 6.69115 0 6.69115V20.2938C0 21.7539 1.18457 22.9415 2.64769 22.9415H27.3523C28.8124 22.9415 30 21.757 30 20.2938V7.64616C30 7.64616 17.9186 15.6504 16.9575 16.2473C15.9933 16.8473 14.071 16.8748 13.2293 16.2473ZM27.3493 0H2.64769C1.18457 0 0 1.18457 0 2.64769V3.82308C0 3.82308 13.7833 14.068 14.1598 14.3373C14.5393 14.6067 15.6137 14.6067 16.0208 14.3373C16.431 14.068 29.9969 4.77808 29.9969 4.77808V2.64769C29.9969 1.18457 28.8124 0 27.3493 0Z" fill="black"/>
</svg>
