<svg width="15" height="13" viewBox="0 0 15 13" fill="none" xmlns="http://www.w3.org/2000/svg">
<path d="M4.78555 6.3712L0.320491 10.8363C-0.100452 11.2572 -0.101983 11.946 0.322022 12.37C0.744495 12.7925 1.43178 12.794 1.85578 12.3715L7.08619 7.14114C7.19487 7.03246 7.276 6.90541 7.32957 6.76918C7.48264 6.37885 7.40152 5.91658 7.08772 5.60279L1.85119 0.366258C1.42719 -0.0577467 0.739903 -0.056216 0.317429 0.366258C-0.106575 0.790262 -0.105044 1.47908 0.317429 1.90002L4.78555 6.3712ZM12.3824 6.3712L7.91583 10.8363C7.49489 11.2572 7.49336 11.946 7.91736 12.37C8.33983 12.7925 9.02712 12.794 9.45112 12.3715L14.6815 7.14114C14.7902 7.03246 14.8713 6.90541 14.9249 6.76918C15.078 6.37885 14.9969 5.91658 14.6831 5.60279L9.44653 0.366258C9.02253 -0.0577467 8.33524 -0.056216 7.91277 0.366258C7.48877 0.790262 7.4903 1.47908 7.91277 1.90002L12.3824 6.3712Z" fill="black"/>
</svg>
