<svg width="30" height="30" viewBox="0 0 30 30" fill="none" xmlns="http://www.w3.org/2000/svg">
<path d="M14.7027 0.756757C6.65529 0.756757 0.108154 7.30389 0.108154 15.3514V21.3979C0.108154 22.8924 1.41729 24.1081 3.02707 24.1081H4.48653C4.87361 24.1081 5.24482 23.9543 5.51853 23.6806C5.79223 23.4069 5.94599 23.0357 5.94599 22.6487V15.1426C5.94599 14.7556 5.79223 14.3844 5.51853 14.1107C5.24482 13.837 4.87361 13.6832 4.48653 13.6832H3.16134C3.9728 8.03508 8.8328 3.67568 14.7027 3.67568C20.5727 3.67568 25.4327 8.03508 26.2442 13.6832H24.919C24.5319 13.6832 24.1607 13.837 23.887 14.1107C23.6133 14.3844 23.4595 14.7556 23.4595 15.1426V24.1081C23.4595 25.7179 22.1504 27.027 20.5406 27.027H17.6217V25.5676H11.7838V29.9459H20.5406C23.7602 29.9459 26.3784 27.3277 26.3784 24.1081C27.9882 24.1081 29.2973 22.8924 29.2973 21.3979V15.3514C29.2973 7.30389 22.7502 0.756757 14.7027 0.756757Z" fill="black"/>
</svg>
