<svg width="33" height="30" viewBox="0 0 33 30" fill="none" xmlns="http://www.w3.org/2000/svg">
<path d="M18 30C24.6274 30 30 24.6274 30 18C30 11.3726 24.6274 6 18 6C11.3726 6 6 11.3726 6 18C6 24.6274 11.3726 30 18 30Z" fill="url(#paint0_linear_113_2)" fill-opacity="0.3"/>
<path d="M18.9974 0.617771C19.025 0.329504 18.8285 0.0711265 18.5577 0.0498417C15.5958 -0.182989 12.6245 0.402409 9.93186 1.75368C7.09074 3.17944 4.66703 5.404 2.92081 8.18867C1.17462 10.9733 0.171876 14.2129 0.0201929 17.5597C-0.123565 20.7317 0.502274 23.8865 1.83329 26.7201C1.95496 26.9792 2.25371 27.0746 2.49286 26.9374L5.51432 25.2043C5.75349 25.0672 5.84228 24.7495 5.72295 24.4892C4.77001 22.41 4.32339 20.1048 4.42841 17.7873C4.54138 15.2948 5.28813 12.8823 6.58855 10.8085C7.88897 8.73475 9.69395 7.07812 11.8098 6.0163C13.7771 5.02904 15.9441 4.59073 18.1084 4.73826C18.3793 4.75673 18.6207 4.54799 18.6483 4.25974L18.9974 0.617771Z" fill="url(#paint1_linear_113_2)"/>
<path d="M32.7224 10.1724V3.25643C32.7224 3.02813 32.4249 2.91409 32.2514 3.07592L12.0808 21.895C11.9078 22.0564 12.031 22.3314 12.2762 22.3314H19.4808C19.5534 22.3314 19.6231 22.358 19.6747 22.4054L25.6818 27.926C25.7334 27.9734 25.8031 28 25.8758 28H32.7238C32.9694 28 33.0924 27.7243 32.9187 27.5631L23.7068 19.0106C23.5991 18.9107 23.5991 18.7486 23.7068 18.6487L32.6417 10.3533C32.6934 10.3054 32.7224 10.2403 32.7224 10.1724Z" fill="url(#paint2_linear_113_2)"/>
<path d="M17.9137 12.6823L12.5082 17.915C12.3213 18.096 12 17.9688 12 17.7138V12.7134C12 12.6398 12.0296 12.5691 12.0825 12.516L17.488 7.0887C17.6732 6.9027 18 7.02868 18 7.28618V12.4811C18 12.5565 17.969 12.6288 17.9137 12.6823Z" fill="url(#paint3_linear_113_2)"/>
<path d="M24.5 6C25.8807 6 27 4.65685 27 3C27 1.34315 25.8807 0 24.5 0C23.1193 0 22 1.34315 22 3C22 4.65685 23.1193 6 24.5 6Z" fill="url(#paint4_linear_113_2)"/>
<defs>
<linearGradient id="paint0_linear_113_2" x1="6" y1="6" x2="30" y2="30" gradientUnits="userSpaceOnUse">
<stop stop-color="#FDD819"/>
<stop offset="1" stop-color="#E80505"/>
</linearGradient>
<linearGradient id="paint1_linear_113_2" x1="3.72881e-06" y1="8.3788e-06" x2="36.8242" y2="34.5027" gradientUnits="userSpaceOnUse">
<stop stop-color="#FDD819"/>
<stop offset="1" stop-color="#E80505"/>
</linearGradient>
<linearGradient id="paint2_linear_113_2" x1="11.6131" y1="2.63644" x2="36.6845" y2="24.1619" gradientUnits="userSpaceOnUse">
<stop stop-color="#FDD819"/>
<stop offset="1" stop-color="#E80505"/>
</linearGradient>
<linearGradient id="paint3_linear_113_2" x1="12" y1="0.744835" x2="39.82" y2="23.824" gradientUnits="userSpaceOnUse">
<stop stop-color="#FDD819"/>
<stop offset="1" stop-color="#E80505"/>
</linearGradient>
<linearGradient id="paint4_linear_113_2" x1="22" y1="-5.92401e-07" x2="27.9017" y2="4.91805" gradientUnits="userSpaceOnUse">
<stop stop-color="#FDD819"/>
<stop offset="1" stop-color="#E80505"/>
</linearGradient>
</defs>
</svg>
