<svg width="94" height="94" viewBox="0 0 94 94" fill="none" xmlns="http://www.w3.org/2000/svg">
<circle cx="46.5796" cy="46.5796" r="31.688" fill="url(#paint0_linear_749_442)" fill-opacity="0.3"/>
<path d="M51.3758 1.56533C51.4505 0.834899 50.919 0.180204 50.1867 0.126271C42.1766 -0.463692 34.1412 1.01963 26.8593 4.44357C19.1759 8.05626 12.6213 13.693 7.89892 20.749C3.17659 27.8049 0.464805 36.0135 0.0545987 44.494C-0.334174 52.5313 1.35832 60.5253 4.95786 67.7053C5.28691 68.3617 6.09484 68.6035 6.74159 68.2559L14.9127 63.8645C15.5595 63.5169 15.7996 62.7119 15.4769 62.0523C12.8998 56.7841 11.692 50.9429 11.976 45.0706C12.2815 38.7551 14.301 32.642 17.8178 27.3874C21.3346 22.1327 26.2159 17.935 31.9378 15.2445C37.2582 12.7429 43.1186 11.6323 48.9715 12.0061C49.7042 12.0529 50.357 11.524 50.4317 10.7936L51.3758 1.56533Z" fill="url(#paint1_linear_749_442)"/>
<path d="M82.3696 25.5571V7.59314C82.3696 7.00013 81.652 6.70391 81.2337 7.12426L32.5919 56.0061C32.1747 56.4254 32.4717 57.1397 33.0631 57.1397H50.4372C50.6123 57.1397 50.7804 57.2088 50.9048 57.332L65.391 71.6714C65.5155 71.7946 65.6835 71.8637 65.8587 71.8637H82.3729C82.9651 71.8637 83.2617 71.1477 82.8429 70.7289L60.6281 48.5141C60.3685 48.2545 60.3685 47.8336 60.6281 47.574L82.1749 26.0271C82.2996 25.9025 82.3696 25.7334 82.3696 25.5571Z" fill="url(#paint2_linear_749_442)"/>
<path d="M44.6883 33.7657L32.6004 45.9442C32.1824 46.3654 31.4639 46.0693 31.4639 45.4759V33.8382C31.4639 33.6669 31.53 33.5023 31.6483 33.3786L43.7363 20.7473C44.1506 20.3144 44.8813 20.6076 44.8813 21.2069V33.2974C44.8813 33.4729 44.8119 33.6412 44.6883 33.7657Z" fill="url(#paint3_linear_749_442)"/>
<circle cx="63.7032" cy="7.2012" r="7.20126" fill="url(#paint4_linear_749_442)"/>
<defs>
<linearGradient id="paint0_linear_749_442" x1="14.8916" y1="14.8916" x2="78.2676" y2="78.2676" gradientUnits="userSpaceOnUse">
<stop stop-color="#FDD819"/>
<stop offset="1" stop-color="#E80505"/>
</linearGradient>
<linearGradient id="paint1_linear_749_442" x1="0" y1="0" x2="93.5056" y2="93.5056" gradientUnits="userSpaceOnUse">
<stop stop-color="#FDD819"/>
<stop offset="1" stop-color="#E80505"/>
</linearGradient>
<linearGradient id="paint2_linear_749_442" x1="31.4639" y1="5.98273" x2="95.6864" y2="57.1746" gradientUnits="userSpaceOnUse">
<stop stop-color="#FDD819"/>
<stop offset="1" stop-color="#E80505"/>
</linearGradient>
<linearGradient id="paint3_linear_749_442" x1="31.4639" y1="5.98273" x2="95.6864" y2="57.1746" gradientUnits="userSpaceOnUse">
<stop stop-color="#FDD819"/>
<stop offset="1" stop-color="#E80505"/>
</linearGradient>
<linearGradient id="paint4_linear_749_442" x1="56.502" y1="-6.10352e-05" x2="70.9045" y2="14.4025" gradientUnits="userSpaceOnUse">
<stop stop-color="#FDD819"/>
<stop offset="1" stop-color="#E80505"/>
</linearGradient>
</defs>
</svg>
