<svg width="2217" height="719" viewBox="0 0 2217 719" fill="none" xmlns="http://www.w3.org/2000/svg">
<path d="M0.370117 488.466C26.3883 488.466 224.126 712.222 485.794 712.222C849.305 712.222 1045.03 -102.901 1557 124.955C1962.88 305.595 2141.29 324.923 2215.63 199.293" stroke="#E92323" stroke-opacity="0.7"/>
<path d="M0.370117 295.188C23.4148 312.286 224.126 712.222 485.794 712.222C849.305 712.222 1104.5 -13.6954 1616.47 214.16C2022.35 394.8 2086.28 365.809 2215.63 273.63" stroke="#E92323" stroke-opacity="0.7"/>
<path d="M0.370117 607.405C26.3883 607.405 224.126 718.168 485.794 718.168C849.305 718.168 1049.27 -235.938 1527.26 56.5642C1875.91 269.913 2081.82 354.658 2215.63 258.763" stroke="#E92323" stroke-opacity="0.7"/>
</svg>
