<svg width="116" height="18" viewBox="0 0 116 18" fill="none" xmlns="http://www.w3.org/2000/svg">
<path d="M0.0650275 17L0.0880274 0.439999H3.26203V10.56L7.47103 4.58H11.335L6.85003 10.79L11.634 17H7.56303L3.26203 11.02V17H0.0650275ZM12.7785 17V4.58H15.5385V7.616L15.2395 7.225C15.4005 6.79567 15.6151 6.40467 15.8835 6.052C16.1518 5.69933 16.4815 5.408 16.8725 5.178C17.1715 4.994 17.4973 4.85217 17.85 4.7525C18.2026 4.64517 18.5668 4.58 18.9425 4.557C19.3181 4.52633 19.6938 4.534 20.0695 4.58V7.501C19.7245 7.39367 19.322 7.35917 18.862 7.3975C18.4096 7.42817 17.9995 7.53167 17.6315 7.708C17.2635 7.87667 16.953 8.10283 16.7 8.3865C16.447 8.6625 16.2553 8.99217 16.125 9.3755C15.9946 9.75117 15.9295 10.1767 15.9295 10.652V17H12.7785ZM22.487 2.855V0.0949997H25.615V2.855H22.487ZM22.487 17V4.58H25.615V17H22.487ZM33.9156 17.345C32.3516 17.345 31.0866 16.9923 30.1206 16.287C29.1623 15.574 28.5796 14.5697 28.3726 13.274L31.5696 12.791C31.7 13.3737 31.9875 13.8298 32.4321 14.1595C32.8845 14.4892 33.4556 14.654 34.1456 14.654C34.713 14.654 35.15 14.5467 35.4566 14.332C35.7633 14.1097 35.9166 13.803 35.9166 13.412C35.9166 13.1667 35.8553 12.9712 35.7326 12.8255C35.61 12.6722 35.334 12.5227 34.9046 12.377C34.483 12.2313 33.8236 12.0397 32.9266 11.802C31.9146 11.5413 31.1058 11.25 30.5001 10.928C29.8945 10.606 29.4575 10.2227 29.1891 9.778C28.9208 9.32567 28.7866 8.78133 28.7866 8.145C28.7866 7.34767 28.9898 6.65767 29.3961 6.075C29.8025 5.48467 30.3736 5.03233 31.1096 4.718C31.8533 4.396 32.7273 4.235 33.7316 4.235C34.7053 4.235 35.5678 4.3845 36.3191 4.6835C37.0705 4.9825 37.6761 5.408 38.1361 5.96C38.6038 6.512 38.8913 7.16367 38.9986 7.915L35.8016 8.49C35.748 8.03 35.5486 7.66583 35.2036 7.3975C34.8586 7.12917 34.391 6.972 33.8006 6.926C33.2256 6.88767 32.7618 6.96433 32.4091 7.156C32.0641 7.34767 31.8916 7.62367 31.8916 7.984C31.8916 8.19867 31.9645 8.37883 32.1101 8.5245C32.2635 8.67017 32.574 8.81967 33.0416 8.973C33.517 9.12633 34.2376 9.32567 35.2036 9.571C36.1466 9.81633 36.9018 10.1038 37.4691 10.4335C38.0441 10.7555 38.462 11.1465 38.7226 11.6065C38.9833 12.0588 39.1136 12.607 39.1136 13.251C39.1136 14.5237 38.6536 15.5242 37.7336 16.2525C36.8136 16.9808 35.541 17.345 33.9156 17.345ZM50.1048 17V11.135C50.1048 10.8513 50.0894 10.491 50.0588 10.054C50.0281 9.60933 49.9323 9.16467 49.7713 8.72C49.6103 8.27533 49.3458 7.9035 48.9778 7.6045C48.6174 7.3055 48.1038 7.156 47.4368 7.156C47.1684 7.156 46.8809 7.19817 46.5743 7.2825C46.2676 7.36683 45.9801 7.53167 45.7118 7.777C45.4434 8.01467 45.2211 8.36733 45.0448 8.835C44.8761 9.30267 44.7918 9.92367 44.7918 10.698L42.9978 9.847C42.9978 8.86567 43.1971 7.94567 43.5958 7.087C43.9944 6.22833 44.5924 5.5345 45.3898 5.0055C46.1948 4.4765 47.2068 4.212 48.4258 4.212C49.3994 4.212 50.1929 4.37683 50.8063 4.7065C51.4196 5.03617 51.8949 5.454 52.2323 5.96C52.5773 6.466 52.8226 6.995 52.9683 7.547C53.1139 8.09133 53.2021 8.58967 53.2328 9.042C53.2634 9.49433 53.2788 9.824 53.2788 10.031V17H50.1048ZM41.6178 17V0.439999H44.4008V8.95H44.7918V17H41.6178Z" fill="#31353B"/>
<path d="M63.0018 17V14.424H55.8028V11.503L61.0238 0.439999H64.6118L59.3908 11.503H63.0018V7.363H66.1758V11.503H67.6478V14.424H66.1758V17H63.0018ZM73.8632 17.345C72.9739 17.345 72.2187 17.1763 71.5977 16.839C70.9844 16.494 70.5167 16.0378 70.1947 15.4705C69.8804 14.8955 69.7232 14.263 69.7232 13.573C69.7232 12.998 69.8114 12.4728 69.9877 11.9975C70.1641 11.5222 70.4477 11.1043 70.8387 10.744C71.2374 10.376 71.7702 10.0693 72.4372 9.824C72.8972 9.65533 73.4454 9.50583 74.0817 9.3755C74.7181 9.24517 75.4387 9.1225 76.2437 9.0075C77.0487 8.88483 77.9342 8.75067 78.9002 8.605L77.7732 9.226C77.7732 8.49 77.5969 7.9495 77.2442 7.6045C76.8916 7.2595 76.3012 7.087 75.4732 7.087C75.0132 7.087 74.5341 7.19817 74.0357 7.4205C73.5374 7.64283 73.1886 8.03767 72.9892 8.605L70.1602 7.708C70.4746 6.68067 71.0649 5.845 71.9312 5.201C72.7976 4.557 73.9782 4.235 75.4732 4.235C76.5696 4.235 77.5432 4.40367 78.3942 4.741C79.2452 5.07833 79.8892 5.661 80.3262 6.489C80.5716 6.949 80.7172 7.409 80.7632 7.869C80.8092 8.329 80.8322 8.84267 80.8322 9.41V17H78.0952V14.447L78.4862 14.976C77.8806 15.8117 77.2251 16.4173 76.5197 16.793C75.8221 17.161 74.9366 17.345 73.8632 17.345ZM74.5302 14.884C75.1052 14.884 75.5882 14.7843 75.9792 14.585C76.3779 14.378 76.6922 14.1442 76.9222 13.8835C77.1599 13.6228 77.3209 13.4043 77.4052 13.228C77.5662 12.8907 77.6582 12.4997 77.6812 12.055C77.7119 11.6027 77.7272 11.227 77.7272 10.928L78.6472 11.158C77.7196 11.3113 76.9682 11.4417 76.3932 11.549C75.8182 11.6487 75.3544 11.7407 75.0017 11.825C74.6491 11.9093 74.3386 12.0013 74.0702 12.101C73.7636 12.2237 73.5144 12.3578 73.3227 12.5035C73.1387 12.6415 73.0007 12.7948 72.9087 12.9635C72.8244 13.1322 72.7822 13.32 72.7822 13.527C72.7822 13.8107 72.8512 14.056 72.9892 14.263C73.1349 14.4623 73.3381 14.6157 73.5987 14.723C73.8594 14.8303 74.1699 14.884 74.5302 14.884ZM84.0524 17V0.0949997H87.1804V17H84.0524ZM96.4011 17.345C95.1284 17.345 94.0052 17.0728 93.0316 16.5285C92.0656 15.9765 91.3066 15.2213 90.7546 14.263C90.2102 13.297 89.9381 12.193 89.9381 10.951C89.9381 9.594 90.2064 8.41333 90.7431 7.409C91.2797 6.40467 92.0196 5.6265 92.9626 5.0745C93.9056 4.51483 94.9904 4.235 96.2171 4.235C97.5204 4.235 98.6282 4.54167 99.5406 5.155C100.453 5.76833 101.128 6.63083 101.565 7.7425C102.002 8.85417 102.155 10.1613 102.025 11.664H98.9311V10.514C98.9311 9.249 98.7279 8.3405 98.3216 7.7885C97.9229 7.22883 97.2674 6.949 96.3551 6.949C95.2894 6.949 94.5036 7.27483 93.9976 7.9265C93.4992 8.5705 93.2501 9.525 93.2501 10.79C93.2501 11.9477 93.4992 12.8447 93.9976 13.481C94.5036 14.1097 95.2434 14.424 96.2171 14.424C96.8304 14.424 97.3556 14.2898 97.7926 14.0215C98.2296 13.7532 98.5631 13.366 98.7931 12.86L101.921 13.757C101.453 14.8917 100.714 15.7733 99.7016 16.402C98.6972 17.0307 97.5971 17.345 96.4011 17.345ZM92.2841 11.664V9.341H100.518V11.664H92.2841ZM102.792 17L107.231 10.721L102.884 4.58H106.564L109.048 8.26L111.486 4.58H115.166L110.819 10.721L115.281 17H111.601L109.048 13.182L106.472 17H102.792Z" fill="#FF0000"/>
</svg>
