<svg width="280" height="42" viewBox="0 0 280 42" fill="none" xmlns="http://www.w3.org/2000/svg">
<path d="M0.254083 41L0.309728 0.93548H7.98876V25.4194L18.1718 10.9516H27.5202L16.6694 25.9758L28.2436 41H18.3944L7.98876 26.5323V41H0.254083ZM31.0124 41V10.9516H37.6898V18.2968L36.9664 17.3508C37.3559 16.3121 37.8753 15.3661 38.5245 14.5129C39.1737 13.6597 39.9713 12.9548 40.9172 12.3984C41.6406 11.9532 42.4289 11.6101 43.2821 11.3689C44.1354 11.1093 45.0164 10.9516 45.9253 10.896C46.8342 10.8218 47.743 10.8403 48.6519 10.9516V18.0185C47.8172 17.7589 46.8434 17.6754 45.7305 17.7681C44.6362 17.8423 43.6438 18.0927 42.7535 18.5194C41.8632 18.9274 41.112 19.4746 40.4999 20.1609C39.8878 20.8286 39.4241 21.6262 39.1088 22.5536C38.7934 23.4625 38.6358 24.4919 38.6358 25.6419V41H31.0124ZM54.5007 6.77822V0.100803H62.0685V6.77822H54.5007ZM54.5007 41V10.9516H62.0685V41H54.5007ZM82.1507 41.8347C78.3669 41.8347 75.3064 40.9815 72.9693 39.275C70.6507 37.55 69.241 35.1202 68.7402 31.9855L76.4749 30.8169C76.7902 32.2266 77.4858 33.3302 78.5616 34.1278C79.656 34.9254 81.0378 35.3242 82.7072 35.3242C84.0798 35.3242 85.137 35.0645 85.879 34.5452C86.6209 34.0073 86.9919 33.2653 86.9919 32.3194C86.9919 31.7258 86.8435 31.2528 86.5467 30.9004C86.2499 30.5294 85.5822 30.1677 84.5435 29.8153C83.5233 29.4629 81.9281 28.9992 79.758 28.4242C77.3096 27.7935 75.3527 27.0887 73.8874 26.3097C72.4221 25.5306 71.3648 24.6032 70.7156 23.5274C70.0665 22.4331 69.7419 21.1161 69.7419 19.5766C69.7419 17.6476 70.2334 15.9782 71.2165 14.5685C72.1995 13.1403 73.5814 12.046 75.362 11.2855C77.1612 10.5064 79.2757 10.1169 81.7056 10.1169C84.0612 10.1169 86.1479 10.4786 87.9656 11.202C89.7834 11.9254 91.2487 12.9548 92.3616 14.2903C93.4931 15.6258 94.1886 17.2024 94.4483 19.0202L86.7136 20.4113C86.5838 19.2984 86.1015 18.4173 85.2669 17.7681C84.4322 17.1189 83.3007 16.7387 81.8725 16.6274C80.4814 16.5347 79.3592 16.7202 78.506 17.1839C77.6713 17.6476 77.254 18.3153 77.254 19.1871C77.254 19.7064 77.4302 20.1423 77.7826 20.4948C78.1535 20.8472 78.9048 21.2089 80.0362 21.5798C81.1862 21.9508 82.9298 22.4331 85.2669 23.0266C87.5483 23.6202 89.3753 24.3157 90.7479 25.1133C92.139 25.8923 93.1499 26.8383 93.7806 27.9512C94.4112 29.0456 94.7265 30.3718 94.7265 31.9298C94.7265 35.0089 93.6136 37.4294 91.3878 39.1915C89.162 40.9536 86.083 41.8347 82.1507 41.8347ZM121.318 41V26.8105C121.318 26.1242 121.281 25.2524 121.207 24.1952C121.132 23.1194 120.901 22.0435 120.511 20.9677C120.122 19.8919 119.482 18.9923 118.591 18.2689C117.72 17.5456 116.477 17.1839 114.863 17.1839C114.214 17.1839 113.518 17.2859 112.776 17.4899C112.034 17.6939 111.339 18.0927 110.69 18.6863C110.041 19.2613 109.503 20.1145 109.076 21.246C108.668 22.3774 108.464 23.8798 108.464 25.7532L104.124 23.6944C104.124 21.3202 104.606 19.0944 105.57 17.0169C106.535 14.9395 107.982 13.2609 109.911 11.981C111.858 10.7012 114.307 10.0613 117.256 10.0613C119.612 10.0613 121.531 10.4601 123.015 11.2577C124.499 12.0552 125.649 13.0661 126.465 14.2903C127.3 15.5145 127.893 16.7944 128.246 18.1298C128.598 19.4468 128.812 20.6524 128.886 21.7468C128.96 22.8411 128.997 23.6387 128.997 24.1395V41H121.318ZM100.785 41V0.93548H107.518V21.5242H108.464V41H100.785Z" fill="#31353B"/>
<path d="M152.521 41V34.7677H135.104V27.7008L147.735 0.93548H156.416L143.784 27.7008H152.521V17.6847H160.2V27.7008H163.761V34.7677H160.2V41H152.521ZM178.798 41.8347C176.647 41.8347 174.819 41.4266 173.317 40.6105C171.833 39.7758 170.702 38.6722 169.923 37.2996C169.162 35.9085 168.782 34.3782 168.782 32.7089C168.782 31.3177 168.995 30.0472 169.422 28.8972C169.849 27.7472 170.535 26.7363 171.481 25.8645C172.445 24.9742 173.734 24.2323 175.348 23.6387C176.461 23.2306 177.787 22.8689 179.327 22.5536C180.866 22.2383 182.61 21.9415 184.557 21.6633C186.505 21.3665 188.647 21.0419 190.984 20.6895L188.258 22.1919C188.258 20.4113 187.831 19.1036 186.978 18.2689C186.125 17.4343 184.697 17.0169 182.693 17.0169C181.58 17.0169 180.421 17.2859 179.215 17.8238C178.01 18.3617 177.166 19.3169 176.684 20.6895L169.839 18.5194C170.6 16.0339 172.028 14.0121 174.124 12.454C176.22 10.896 179.076 10.1169 182.693 10.1169C185.346 10.1169 187.701 10.525 189.76 11.3411C191.819 12.1573 193.377 13.5669 194.434 15.5702C195.028 16.6831 195.38 17.796 195.492 18.9089C195.603 20.0218 195.659 21.2645 195.659 22.6371V41H189.037V34.8234L189.983 36.1032C188.517 38.125 186.932 39.5903 185.225 40.4992C183.537 41.3895 181.395 41.8347 178.798 41.8347ZM180.412 35.8806C181.803 35.8806 182.972 35.6395 183.917 35.1573C184.882 34.6565 185.642 34.0907 186.199 33.4601C186.774 32.8294 187.163 32.3008 187.367 31.8742C187.757 31.0581 187.98 30.1121 188.035 29.0363C188.109 27.9419 188.147 27.0331 188.147 26.3097L190.372 26.8661C188.128 27.2371 186.31 27.5524 184.919 27.8121C183.528 28.0532 182.406 28.2758 181.553 28.4798C180.699 28.6839 179.948 28.9065 179.299 29.1476C178.557 29.4444 177.954 29.769 177.49 30.1214C177.045 30.4552 176.711 30.8262 176.489 31.2343C176.285 31.6423 176.183 32.0968 176.183 32.5976C176.183 33.2839 176.35 33.8774 176.684 34.3782C177.036 34.8605 177.528 35.2315 178.158 35.4911C178.789 35.7508 179.54 35.8806 180.412 35.8806ZM203.449 41V0.100803H211.017V41H203.449ZM233.325 41.8347C230.246 41.8347 227.529 41.1762 225.173 39.8593C222.836 38.5238 221 36.6968 219.664 34.3782C218.347 32.0411 217.689 29.3702 217.689 26.3653C217.689 23.0823 218.338 20.2258 219.636 17.796C220.935 15.3661 222.725 13.4835 225.006 12.148C227.288 10.7939 229.912 10.1169 232.88 10.1169C236.033 10.1169 238.713 10.8589 240.921 12.3427C243.128 13.8266 244.76 15.9133 245.817 18.6028C246.875 21.2923 247.246 24.4548 246.93 28.0903H239.446V25.3081C239.446 22.2476 238.955 20.0496 237.972 18.7141C237.007 17.3601 235.421 16.6831 233.214 16.6831C230.636 16.6831 228.734 17.4714 227.51 19.048C226.305 20.606 225.702 22.9153 225.702 25.9758C225.702 28.7766 226.305 30.9468 227.51 32.4863C228.734 34.0073 230.524 34.7677 232.88 34.7677C234.364 34.7677 235.634 34.4431 236.692 33.794C237.749 33.1448 238.556 32.2081 239.112 30.9839L246.68 33.154C245.549 35.8992 243.759 38.0323 241.31 39.5532C238.88 41.0742 236.219 41.8347 233.325 41.8347ZM223.365 28.0903V22.4702H243.286V28.0903H223.365ZM248.787 41L259.527 25.8089L249.01 10.9516H257.913L263.923 19.8548L269.821 10.9516H278.724L268.207 25.8089L279.002 41H270.099L263.923 31.7629L257.69 41H248.787Z" fill="#FF0000"/>
</svg>
