<svg width="32" height="40" viewBox="0 0 32 40" fill="none" xmlns="http://www.w3.org/2000/svg">
<path d="M3.27845 8.13222L4.50001 13.3352L3.27845 18.5155L7.82539 21.3206L10.6079 25.8676L15.8108 24.646L21.0138 25.8676L23.7963 21.3206L28.3432 18.5155L27.1216 13.3352L28.3432 8.13222L23.8189 5.32714L21.0138 0.780197L15.8108 2.02439L10.6305 0.802819L7.80277 5.32714L3.27845 8.13222ZM15.8334 22.4743C13.4336 22.4743 11.132 21.521 9.43508 19.824C7.73813 18.1271 6.7848 15.8255 6.7848 13.4257C6.7848 11.0258 7.73813 8.72427 9.43508 7.02732C11.132 5.33037 13.4336 4.37704 15.8334 4.37704C20.8102 4.37704 24.8595 8.42631 24.8595 13.4031C24.8595 18.4251 20.8102 22.4743 15.8334 22.4743ZM15.7882 20.2122C12.033 20.2122 9.02434 17.1809 9.02434 13.4257C9.02434 9.69312 12.033 6.6392 15.7882 6.6392C19.5434 6.6392 22.5973 9.69312 22.5973 13.4257C22.5973 17.1809 19.5434 20.2122 15.7882 20.2122ZM24.4749 22.7006L21.5793 27.7678L16.874 26.7046L22.5973 39.893L25.7643 34.9162H31.4197L24.4749 22.7006ZM7.05626 22.8589L9.88396 27.9488L14.7024 26.7951L9.02434 39.893L5.85731 34.9162H0.201904L7.05626 22.8589Z" fill="black"/>
</svg>
