<svg width="16" height="19" viewBox="0 0 16 19" fill="none" xmlns="http://www.w3.org/2000/svg">
<path d="M14.6426 7.9144V16C14.6426 16.5285 14.4327 17.0354 14.059 17.4092C13.6852 17.7829 13.1783 17.9929 12.6498 17.9929H3.34979C2.82125 17.9929 2.31436 17.7829 1.94063 17.4092C1.56689 17.0354 1.35693 16.5285 1.35693 16V2.71429C1.35693 2.18575 1.56689 1.67886 1.94063 1.30513C2.31436 0.931397 2.82125 0.721436 3.34979 0.721436H7.44968C7.80192 0.721489 8.13972 0.861417 8.38881 1.11046L14.2536 6.97527C14.5027 7.22437 14.6426 7.56217 14.6426 7.9144Z" stroke="white" stroke-width="1.32857" stroke-linejoin="round"/>
<path d="M7.9999 1.05359V6.03573C7.9999 6.38809 8.13987 6.72602 8.38903 6.97517C8.63818 7.22433 8.97611 7.3643 9.32847 7.3643H14.3106M4.67847 10.6857H11.3213M4.67847 14.0072H11.3213" stroke="white" stroke-width="1.32857" stroke-linecap="round" stroke-linejoin="round"/>
</svg>
