<svg width="18" height="19" viewBox="0 0 18 19" fill="none" xmlns="http://www.w3.org/2000/svg">
<path d="M17.33 1.16999C17.1408 0.982156 16.9035 0.85011 16.6442 0.788363C16.3849 0.726616 16.1135 0.737559 15.86 0.819988L1.23 5.69999C0.958673 5.78596 0.718908 5.95042 0.540989 6.17258C0.363071 6.39474 0.254981 6.66465 0.23037 6.94821C0.205759 7.23177 0.265732 7.51626 0.402714 7.76575C0.539696 8.01525 0.747543 8.21855 1 8.34999L7.07 11.35L10.07 17.44C10.1906 17.6784 10.3751 17.8785 10.6029 18.018C10.8307 18.1575 11.0929 18.2309 11.36 18.23H11.46C11.7461 18.2089 12.0192 18.1023 12.2439 17.924C12.4686 17.7456 12.6345 17.5038 12.72 17.23L17.67 2.63999C17.7584 2.38792 17.7734 2.11593 17.7132 1.85569C17.653 1.59544 17.5201 1.35765 17.33 1.16999ZM1.85 7.07999L14.62 2.81999L7.53 9.90999L1.85 7.07999ZM11.43 16.65L8.59 10.97L15.68 3.87999L11.43 16.65Z" fill="white"/>
</svg>
