<svg width="21" height="21" viewBox="0 0 21 21" fill="none" xmlns="http://www.w3.org/2000/svg">
<path fill-rule="evenodd" clip-rule="evenodd" d="M15.5111 2.37919C16.9588 2.37919 18.1325 3.55291 18.1325 5.00033C18.1325 6.44807 16.9588 7.62195 15.5111 7.62195C14.0635 7.62195 12.8898 6.44824 12.8898 5.00033C12.8898 3.55291 14.0635 2.37919 15.5111 2.37919ZM17.8865 8.53212C16.707 8.53212 15.7504 9.48877 15.7504 10.6681C15.7504 11.8478 16.707 12.8042 17.8865 12.8045C19.0663 12.8045 20.0229 11.8478 20.0229 10.6681C20.0228 9.48877 19.0663 8.53212 17.8865 8.53212ZM15.4097 14.717C14.586 14.717 13.9178 15.3852 13.9178 16.2087C13.9178 17.0325 14.586 17.7007 15.4097 17.7007C16.2333 17.7007 16.9015 17.0325 16.9015 16.2087C16.9015 15.3852 16.2333 14.717 15.4097 14.717ZM9.70321 17.131C8.87948 17.131 8.21127 17.7991 8.21127 18.6228C8.21127 19.4469 8.87948 20.1151 9.70321 20.1151C10.5269 20.1151 11.195 19.4469 11.195 18.6228C11.1952 17.7991 10.5271 17.131 9.70321 17.131ZM3.87179 14.8736C3.09963 14.8736 2.47381 15.4994 2.47381 16.2716C2.47381 17.0434 3.09963 17.6696 3.87179 17.6696C4.64346 17.6696 5.26945 17.0434 5.26945 16.2716C5.26945 15.4996 4.64346 14.8736 3.87179 14.8736ZM1.489 8.98245C0.666579 8.98245 0 9.64903 0 10.4714C0 11.2934 0.666579 11.96 1.489 11.96C2.31093 11.96 2.97751 11.2934 2.97751 10.4714C2.97751 9.64903 2.31076 8.98245 1.489 8.98245ZM3.87179 2.78713C2.83165 2.78713 1.98795 3.63099 1.98795 4.67113C1.98795 5.71127 2.83165 6.55464 3.87179 6.55464C4.91193 6.55464 5.7553 5.71127 5.7553 4.67113C5.7553 3.63099 4.91193 2.78713 3.87179 2.78713ZM9.71402 0C8.46156 0 7.44549 1.01575 7.44549 2.26804C7.44549 3.52049 8.46156 4.53624 9.71402 4.53624C10.9665 4.53624 11.9822 3.52049 11.9822 2.26804C11.9822 1.01575 10.9665 0 9.71402 0Z" fill="white"/>
</svg>
