<svg width="60" height="66" viewBox="0 0 60 66" fill="none" xmlns="http://www.w3.org/2000/svg">
<path fill-rule="evenodd" clip-rule="evenodd" d="M29.8616 59.1724C46.2016 59.1724 59.4478 45.9262 59.4478 29.5862C59.4478 13.2462 46.2016 0 29.8616 0C13.5216 0 0.275391 13.2462 0.275391 29.5862C0.275391 38.7868 4.47512 47.0066 11.0622 52.433C11.0725 52.4415 11.0633 52.4581 11.0506 52.4538V52.4538C11.0428 52.4511 11.0346 52.4569 11.0346 52.4652V61.6415C11.0346 64.2099 13.7417 65.8768 16.0351 64.7207L26.3897 59.501C26.9617 59.2127 27.6023 59.0943 28.2419 59.1288C28.7781 59.1578 29.3181 59.1724 29.8616 59.1724Z" fill="#005E38"/>
<path fill-rule="evenodd" clip-rule="evenodd" d="M39.6044 20.9882C40.5174 21.6883 40.6917 22.9952 39.994 23.91L29.6402 37.4852C29.2751 37.9639 28.7218 38.2614 28.1221 38.3013C27.5224 38.3412 26.9347 38.1197 26.5097 37.6936L19.9382 31.1047C19.1255 30.2898 19.1255 28.971 19.9382 28.1561C20.7539 27.3382 22.0788 27.3382 22.8945 28.1561L27.7744 33.0489L36.6751 21.3788C37.3754 20.4607 38.6881 20.2856 39.6044 20.9882Z" fill="white"/>
</svg>
