<svg width="73" height="65" viewBox="0 0 73 65" fill="none" xmlns="http://www.w3.org/2000/svg">
<g clip-path="url(#clip0_307_762)">
<path d="M17.7653 16.3714C22.1909 16.3714 25.7786 12.7837 25.7786 8.35807C25.7786 3.93242 22.1909 0.344727 17.7653 0.344727C13.3396 0.344727 9.75195 3.93242 9.75195 8.35807C9.75195 12.7837 13.3396 16.3714 17.7653 16.3714Z" fill="#005E38"/>
<path d="M69.052 44.6851C70.8223 44.6851 72.2573 43.25 72.2573 41.4797C72.2573 39.7095 70.8223 38.2744 69.052 38.2744C67.2818 38.2744 65.8467 39.7095 65.8467 41.4797C65.8467 43.25 67.2818 44.6851 69.052 44.6851Z" fill="#005E38"/>
<path d="M68.4868 9.84997C71.1189 16.3353 67.9952 23.7265 61.5099 26.3587C60.7945 26.649 60.0681 26.8694 59.3382 27.0228C55.2769 27.877 50.7413 29.0386 48.5681 32.5743C46.0309 36.7024 47.4176 42.0632 51.1641 45.136C58.6343 51.2628 64.6789 59.3381 68.4342 68.9822C80.092 98.9212 65.2721 132.642 35.3331 144.299C5.39411 155.957 -28.3268 141.137 -39.9846 111.198C-51.6424 81.2598 -36.8225 47.5389 -6.88346 35.8811C6.19331 30.7892 19.9915 30.7487 32.3577 34.8129C36.8368 36.285 41.9434 34.8902 44.4122 30.8734L45.3302 29.3799C47.1507 26.4179 46.3086 22.6033 45.0012 19.3818C42.369 12.8965 45.4927 5.50525 51.978 2.8731C58.4634 0.240955 65.8546 3.36461 68.4868 9.84997Z" fill="#005E38"/>
</g>
<defs>
<clipPath id="clip0_307_762">
<path d="M0 0H73V65H24C10.7452 65 0 54.2548 0 41V0Z" fill="white"/>
</clipPath>
</defs>
</svg>
