<svg width="70" height="78" viewBox="0 0 70 78" fill="none" xmlns="http://www.w3.org/2000/svg">
<path fill-rule="evenodd" clip-rule="evenodd" d="M34.9997 68.64C53.9541 68.64 69.3197 53.2744 69.3197 34.32C69.3197 15.3656 53.9541 0 34.9997 0C16.0453 0 0.679688 15.3656 0.679688 34.32C0.679688 43.2429 4.08488 51.3705 9.66665 57.4741C10.3859 58.2607 10.8197 59.2749 10.8197 60.3408V73.1872C10.8197 76.1365 13.9027 78.0717 16.5587 76.7894L33.415 68.6519C33.4248 68.6472 33.4246 68.6332 33.4147 68.6288V68.6288C33.4018 68.623 33.4064 68.6037 33.4205 68.6043C33.9439 68.628 34.4704 68.64 34.9997 68.64Z" fill="#B15500"/>
<path fill-rule="evenodd" clip-rule="evenodd" d="M31.8691 36.5652C31.8691 38.2221 33.2123 39.5652 34.8691 39.5652H35.13C36.7869 39.5652 38.13 38.2221 38.13 36.5652L38.13 23.087C38.13 21.4301 36.7869 20.087 35.13 20.087H34.8691C33.2123 20.087 31.8691 21.4301 31.8691 23.087V36.5652ZM34.9996 47.9131C36.7285 47.9131 38.13 46.5115 38.13 44.7826C38.13 43.0537 36.7285 41.6522 34.9996 41.6522C33.2707 41.6522 31.8691 43.0537 31.8691 44.7826C31.8691 46.5115 33.2707 47.9131 34.9996 47.9131Z" fill="white"/>
</svg>
