<svg width="24" height="24" viewBox="0 0 24 24" fill="none" xmlns="http://www.w3.org/2000/svg">
<path d="M23.25 22C23.25 22.3315 23.1183 22.6495 22.8839 22.8839C22.6495 23.1183 22.3315 23.25 22 23.25H2C1.66848 23.25 1.35054 23.1183 1.11612 22.8839C0.881696 22.6495 0.75 22.3315 0.75 22V2C0.75 1.66848 0.881696 1.35054 1.11612 1.11612C1.35054 0.881696 1.66848 0.75 2 0.75H22C22.3315 0.75 22.6495 0.881696 22.8839 1.11612C23.1183 1.35054 23.25 1.66848 23.25 2V22ZM10.75 3.25H3.25V20.75H10.75V3.25ZM20.75 13.25H13.25V20.75H20.75V13.25ZM20.75 3.25H13.25V10.75H20.75V3.25Z" fill="black"/>
</svg>
